<svg width="403" height="403" viewBox="0 0 403 403" fill="none" xmlns="http://www.w3.org/2000/svg">
<rect width="403" height="403" rx="201.5" fill="white"/>
<path d="M147.927 317.053C147.118 317.053 146.308 317.251 145.499 317.649C144.69 318.032 143.959 318.543 143.306 319.182C142.667 319.821 142.141 320.545 141.73 321.355C141.318 322.15 141.112 322.959 141.112 323.782C141.112 324.01 141.133 324.244 141.176 324.485C141.219 324.712 141.304 324.925 141.432 325.124C141.574 325.323 141.772 325.486 142.028 325.614C142.283 325.742 142.624 325.806 143.05 325.806C143.874 325.806 144.669 325.614 145.435 325.231C146.216 324.833 146.912 324.315 147.522 323.676C148.133 323.037 148.623 322.32 148.992 321.525C149.361 320.716 149.546 319.906 149.546 319.097C149.546 318.884 149.524 318.657 149.482 318.416C149.453 318.174 149.382 317.954 149.269 317.755C149.155 317.557 148.992 317.393 148.779 317.266C148.566 317.124 148.282 317.053 147.927 317.053ZM149.716 325.635C148.509 327.083 147.224 328.148 145.861 328.83C144.512 329.497 143.05 329.831 141.474 329.831C140.608 329.831 139.877 329.703 139.281 329.447C138.684 329.206 138.202 328.872 137.832 328.446C137.463 328.02 137.194 327.523 137.023 326.956C136.867 326.388 136.789 325.784 136.789 325.145C136.789 324.421 136.881 323.676 137.066 322.909C137.25 322.128 137.492 321.376 137.79 320.652C137.989 320.183 138.152 319.793 138.28 319.48C138.407 319.168 138.514 318.905 138.599 318.692C138.684 318.465 138.755 318.274 138.812 318.117C138.883 317.947 138.954 317.777 139.025 317.606C139.096 317.422 139.181 317.216 139.281 316.989C139.38 316.747 139.515 316.442 139.685 316.073L145.904 302.252C145.989 302.067 146.11 301.889 146.266 301.719C146.436 301.549 146.628 301.4 146.841 301.272C147.054 301.13 147.281 301.023 147.522 300.952C147.778 300.867 148.034 300.825 148.289 300.825C148.942 300.825 149.396 300.952 149.652 301.208C149.922 301.464 150.057 301.776 150.057 302.145C150.057 302.429 149.986 302.741 149.844 303.082C149.702 303.409 149.546 303.714 149.375 303.998C148.325 306.014 147.331 308.065 146.394 310.153C145.457 312.225 144.463 314.277 143.412 316.307C143.866 315.952 144.349 315.612 144.86 315.285C145.371 314.944 145.904 314.646 146.458 314.391C147.011 314.121 147.586 313.908 148.183 313.752C148.779 313.581 149.389 313.496 150.014 313.496C150.454 313.496 150.901 313.581 151.356 313.752C151.81 313.922 152.222 314.17 152.591 314.497C152.974 314.824 153.28 315.228 153.507 315.711C153.748 316.179 153.869 316.726 153.869 317.351C153.869 317.493 153.826 317.777 153.741 318.203C153.656 318.629 153.528 319.111 153.358 319.651C153.201 320.176 153.003 320.723 152.761 321.291C152.534 321.844 152.279 322.334 151.995 322.76C152.094 322.916 152.222 323.016 152.378 323.058C152.534 323.087 152.712 323.101 152.91 323.101C153.564 323.101 154.21 323.016 154.848 322.845C155.502 322.675 156.112 322.469 156.68 322.228C157.262 321.972 157.794 321.709 158.277 321.44C158.76 321.17 159.165 320.936 159.491 320.737C159.661 320.552 159.846 320.46 160.045 320.46C160.286 320.46 160.492 320.567 160.662 320.78C160.847 320.992 160.939 321.269 160.939 321.61C160.939 321.937 160.868 322.263 160.726 322.59C160.598 322.902 160.357 323.25 160.002 323.633C159.363 324.017 158.717 324.379 158.064 324.719C157.425 325.06 156.772 325.358 156.105 325.614C155.438 325.855 154.756 326.054 154.06 326.21C153.379 326.352 152.683 326.423 151.973 326.423C151.519 326.423 151.1 326.359 150.717 326.231C150.334 326.104 150 325.905 149.716 325.635ZM169.394 315.498C169.792 315.186 170.125 314.951 170.395 314.795C170.679 314.625 170.92 314.504 171.119 314.433C171.318 314.348 171.495 314.298 171.651 314.284C171.822 314.27 171.992 314.263 172.163 314.263C172.461 314.263 172.674 314.376 172.801 314.604C172.929 314.816 172.993 315.044 172.993 315.285C172.993 315.484 172.958 315.668 172.887 315.839L168.116 325.784C168.798 325.273 169.579 324.776 170.459 324.293C171.353 323.797 172.205 323.356 173.014 322.973C173.838 322.576 174.541 322.256 175.123 322.015C175.719 321.773 176.06 321.653 176.145 321.653C176.5 321.653 176.812 321.788 177.082 322.057C177.352 322.327 177.487 322.668 177.487 323.08C177.487 323.449 177.345 323.839 177.061 324.251C176.791 324.663 176.308 325.06 175.613 325.443C174.619 325.997 173.753 326.473 173.014 326.87C172.276 327.254 171.623 327.602 171.055 327.914C170.487 328.226 169.983 328.51 169.543 328.766C169.103 329.021 168.684 329.284 168.287 329.554C167.903 329.823 167.52 330.107 167.137 330.406C166.767 330.718 166.363 331.08 165.923 331.492C165.596 332.344 165.27 333.16 164.943 333.941C164.631 334.722 164.34 335.41 164.07 336.007C163.814 336.603 163.601 337.086 163.431 337.455C163.261 337.824 163.168 338.023 163.154 338.051C162.004 340.436 160.74 341.629 159.363 341.629C158.795 341.629 158.334 341.437 157.979 341.054C157.624 340.685 157.447 340.181 157.447 339.542C157.447 338.945 157.518 338.349 157.66 337.753C157.816 337.171 158.078 336.525 158.448 335.815C158.831 335.105 159.328 334.31 159.938 333.43C160.563 332.564 161.344 331.541 162.281 330.363L166.54 321.738C164.411 324.265 162.48 326.196 160.748 327.531C159.015 328.865 157.397 329.532 155.892 329.532C155.409 329.532 154.997 329.419 154.657 329.192C154.316 328.979 154.146 328.617 154.146 328.106C154.146 327.396 154.316 326.593 154.657 325.699C154.856 325.216 155.054 324.776 155.253 324.379C155.452 323.967 155.658 323.562 155.871 323.165C156.084 322.753 156.304 322.313 156.531 321.844C156.772 321.376 157.028 320.851 157.298 320.268C157.581 319.672 157.887 318.991 158.213 318.224C158.554 317.443 158.93 316.534 159.342 315.498C159.626 314.944 159.995 314.547 160.449 314.305C160.904 314.05 161.344 313.922 161.77 313.922C162.21 313.922 162.579 314.029 162.877 314.241C163.19 314.44 163.346 314.71 163.346 315.051C163.346 315.221 163.317 315.37 163.261 315.498L159.363 323.612C159.165 324.024 159.065 324.35 159.065 324.592C159.065 324.805 159.15 324.911 159.321 324.911C159.477 324.911 159.676 324.833 159.917 324.677C160.158 324.521 160.386 324.343 160.598 324.144L169.394 315.498ZM200.168 328.83C199.23 328.73 198.393 328.666 197.655 328.638C196.93 328.595 196.249 328.574 195.61 328.574C195.184 328.574 194.765 328.581 194.354 328.595C193.956 328.61 193.551 328.624 193.14 328.638C192.742 328.638 192.323 328.645 191.883 328.659C191.457 328.673 191.003 328.681 190.52 328.681C190.052 328.681 189.69 328.546 189.434 328.276C189.178 328.006 189.051 327.673 189.051 327.275C189.051 327.119 189.072 326.956 189.115 326.785C189.157 326.643 189.32 326.494 189.604 326.338C189.903 326.168 190.286 326.011 190.754 325.869C191.237 325.713 191.798 325.578 192.437 325.465C193.076 325.351 193.757 325.266 194.481 325.209C195.22 323.605 195.986 321.986 196.781 320.354C197.591 318.707 198.4 317.109 199.209 315.562C200.018 314 200.806 312.509 201.573 311.09C202.34 309.67 203.057 308.378 203.724 307.214C204.391 306.035 204.988 305.013 205.513 304.147C206.052 303.281 206.493 302.621 206.833 302.166C206.109 302.322 205.406 302.493 204.725 302.677C204.043 302.848 203.277 303.018 202.425 303.189C202.255 303.245 202.084 303.274 201.914 303.274C201.502 303.274 201.183 303.132 200.955 302.848C200.728 302.55 200.615 302.195 200.615 301.783C200.615 301.598 200.778 301.385 201.105 301.144C201.445 300.889 201.907 300.633 202.489 300.377C203.085 300.108 203.781 299.852 204.576 299.611C205.385 299.355 206.258 299.128 207.195 298.929C208.147 298.73 209.14 298.574 210.177 298.461C211.228 298.333 212.285 298.269 213.35 298.269C214.344 298.269 215.118 298.376 215.671 298.588C216.239 298.787 216.523 299.135 216.523 299.632C216.523 299.873 216.452 300.122 216.31 300.377C216.168 300.619 215.977 300.839 215.735 301.038C215.508 301.236 215.231 301.4 214.905 301.527C214.578 301.641 214.237 301.698 213.883 301.698C213.684 301.698 213.499 301.691 213.329 301.676C213.158 301.648 212.974 301.634 212.775 301.634C212.25 301.634 211.76 301.648 211.306 301.676C210.851 301.691 210.418 301.712 210.007 301.74C210.035 301.882 210.049 301.989 210.049 302.06C210.049 302.259 210.014 302.45 209.943 302.635C209.872 302.805 209.801 302.968 209.73 303.125C209.29 304.048 208.757 305.162 208.132 306.468C207.508 307.76 206.84 309.137 206.131 310.6C205.421 312.062 204.697 313.546 203.958 315.051C203.234 316.556 202.546 317.975 201.893 319.31C201.239 320.645 200.65 321.837 200.125 322.888C199.6 323.924 199.202 324.712 198.932 325.252C199.727 325.323 200.459 325.422 201.126 325.55C201.793 325.664 202.361 325.813 202.83 325.997C203.312 326.168 203.689 326.373 203.958 326.615C204.228 326.856 204.363 327.126 204.363 327.424C204.363 327.637 204.292 327.85 204.15 328.063C204.008 328.262 203.823 328.446 203.596 328.617C203.369 328.773 203.114 328.901 202.83 329C202.546 329.085 202.255 329.128 201.956 329.128C201.63 329.128 201.318 329.085 201.019 329C200.735 328.915 200.451 328.858 200.168 328.83ZM212.157 316.073C212.441 315.462 212.796 315.008 213.222 314.71C213.648 314.412 214.067 314.263 214.479 314.263C214.82 314.263 215.125 314.391 215.395 314.646C215.664 314.887 215.799 315.25 215.799 315.732C215.799 315.917 215.778 316.116 215.735 316.329C215.693 316.542 215.615 316.769 215.501 317.01C215.813 316.612 216.261 316.208 216.843 315.796C217.425 315.37 218.064 314.994 218.759 314.667C219.469 314.327 220.193 314.05 220.932 313.837C221.684 313.624 222.394 313.517 223.061 313.517C223.814 313.517 224.439 313.702 224.935 314.071C225.447 314.426 225.702 315.037 225.702 315.903C225.702 316.414 225.624 316.946 225.468 317.5C225.312 318.054 225.106 318.607 224.85 319.161C224.609 319.715 224.332 320.261 224.02 320.801C223.722 321.326 223.423 321.823 223.125 322.292C222.827 322.76 222.55 323.193 222.295 323.591C222.053 323.974 221.862 324.293 221.72 324.549C221.535 324.776 221.443 325.039 221.443 325.337C221.443 325.451 221.478 325.55 221.549 325.635C221.62 325.72 221.734 325.763 221.89 325.763C221.989 325.763 222.103 325.756 222.231 325.742C222.359 325.713 222.515 325.635 222.699 325.507C223.466 325.223 224.247 324.868 225.042 324.443C225.851 324.017 226.625 323.569 227.363 323.101C228.102 322.618 228.776 322.143 229.386 321.674C230.011 321.191 230.529 320.758 230.941 320.375C231.055 320.276 231.168 320.205 231.282 320.162C231.395 320.119 231.502 320.098 231.601 320.098C231.843 320.098 232.027 320.19 232.155 320.375C232.297 320.559 232.368 320.794 232.368 321.078C232.368 321.518 232.226 322.008 231.942 322.547C231.672 323.087 231.239 323.591 230.643 324.059C229.834 324.641 229.088 325.174 228.407 325.656C227.739 326.139 227.051 326.593 226.341 327.019C225.645 327.431 224.893 327.822 224.084 328.191C223.288 328.546 222.351 328.879 221.272 329.192C220.903 329.305 220.563 329.39 220.25 329.447C219.952 329.504 219.675 329.532 219.42 329.532C218.667 329.532 218.113 329.327 217.758 328.915C217.418 328.489 217.247 327.9 217.247 327.147C217.247 327.048 217.247 326.956 217.247 326.87C217.262 326.771 217.276 326.664 217.29 326.551C217.318 326.111 217.432 325.628 217.631 325.103C217.844 324.577 218.092 324.038 218.376 323.484C218.674 322.93 218.987 322.384 219.313 321.844C219.64 321.291 219.938 320.772 220.208 320.29C220.492 319.793 220.726 319.353 220.91 318.969C221.095 318.586 221.187 318.274 221.187 318.032C221.187 317.819 221.123 317.642 220.996 317.5C220.882 317.344 220.705 317.266 220.463 317.266C219.554 317.266 218.688 317.535 217.865 318.075C217.056 318.614 216.296 319.282 215.586 320.077C214.876 320.858 214.223 321.688 213.627 322.568C213.031 323.449 212.505 324.237 212.051 324.932C211.767 325.401 211.504 325.905 211.263 326.444C211.036 326.97 210.795 327.467 210.539 327.935C210.283 328.389 209.992 328.766 209.666 329.064C209.353 329.376 208.956 329.532 208.473 329.532C207.976 329.532 207.586 329.376 207.302 329.064C207.018 328.752 206.876 328.368 206.876 327.914C206.876 327.673 206.975 327.282 207.174 326.743C207.373 326.203 207.628 325.578 207.941 324.868C208.253 324.159 208.601 323.399 208.984 322.59C209.382 321.766 209.772 320.957 210.156 320.162C210.553 319.353 210.929 318.593 211.284 317.883C211.639 317.173 211.93 316.57 212.157 316.073ZM237.437 317.372C236.769 317.372 236.123 317.542 235.499 317.883C234.874 318.224 234.32 318.671 233.837 319.225C233.355 319.779 232.971 320.403 232.687 321.099C232.403 321.78 232.261 322.469 232.261 323.165C232.261 323.449 232.276 323.747 232.304 324.059C232.347 324.357 232.432 324.634 232.56 324.89C232.687 325.145 232.865 325.358 233.092 325.529C233.333 325.699 233.653 325.784 234.05 325.784C234.363 325.784 234.725 325.649 235.136 325.38C235.562 325.096 235.995 324.741 236.436 324.315C236.89 323.875 237.33 323.399 237.756 322.888C238.182 322.363 238.565 321.851 238.906 321.355C239.247 320.858 239.524 320.41 239.737 320.013C239.95 319.615 240.056 319.324 240.056 319.14C240.056 318.87 239.964 318.629 239.779 318.416C239.595 318.188 239.367 317.997 239.098 317.841C238.828 317.684 238.537 317.571 238.224 317.5C237.926 317.415 237.664 317.372 237.437 317.372ZM252.195 322.867C251.939 323.108 251.599 323.442 251.173 323.868C250.747 324.293 250.257 324.755 249.703 325.252C249.164 325.749 248.582 326.253 247.957 326.764C247.347 327.261 246.715 327.715 246.062 328.127C245.423 328.539 244.791 328.872 244.166 329.128C243.542 329.398 242.952 329.532 242.399 329.532C241.902 329.532 241.476 329.426 241.121 329.213C240.766 329 240.468 328.723 240.226 328.382C239.999 328.042 239.829 327.658 239.715 327.232C239.602 326.792 239.545 326.345 239.545 325.891C239.545 325.593 239.566 325.301 239.609 325.018C239.651 324.719 239.722 324.443 239.822 324.187C239.382 324.783 238.878 325.401 238.31 326.04C237.756 326.664 237.153 327.239 236.499 327.765C235.861 328.276 235.186 328.695 234.476 329.021C233.781 329.362 233.071 329.532 232.347 329.532C231.977 329.532 231.544 329.454 231.048 329.298C230.565 329.156 230.103 328.915 229.663 328.574C229.223 328.233 228.854 327.793 228.556 327.254C228.258 326.714 228.109 326.054 228.109 325.273C228.109 324.691 228.194 323.995 228.364 323.186C228.549 322.377 228.819 321.539 229.173 320.673C229.543 319.793 230.004 318.927 230.558 318.075C231.126 317.223 231.793 316.463 232.56 315.796C233.326 315.115 234.199 314.568 235.179 314.156C236.159 313.73 237.252 313.517 238.459 313.517C239.083 313.517 239.63 313.595 240.099 313.752C240.567 313.908 240.965 314.078 241.291 314.263C241.66 314.49 241.987 314.738 242.271 315.008C242.512 314.88 242.761 314.76 243.016 314.646C243.229 314.547 243.449 314.462 243.676 314.391C243.918 314.305 244.124 314.263 244.294 314.263C244.834 314.263 245.274 314.412 245.614 314.71C245.955 315.008 246.126 315.335 246.126 315.69C246.126 315.789 246.118 315.867 246.104 315.924C246.033 316.194 245.92 316.534 245.763 316.946C245.622 317.358 245.458 317.819 245.274 318.33C245.089 318.827 244.897 319.353 244.699 319.906C244.514 320.446 244.344 320.978 244.188 321.504C244.031 322.029 243.904 322.526 243.804 322.994C243.705 323.449 243.655 323.839 243.655 324.166C243.655 324.592 243.726 324.947 243.868 325.231C244.01 325.5 244.251 325.635 244.592 325.635C244.805 325.635 245.054 325.571 245.338 325.443C245.636 325.301 245.955 325.117 246.296 324.89C246.637 324.663 246.984 324.407 247.339 324.123C247.709 323.825 248.064 323.527 248.404 323.229C249.199 322.519 250.044 321.709 250.939 320.801C251.166 320.616 251.386 320.524 251.599 320.524C251.883 320.524 252.117 320.666 252.302 320.95C252.5 321.22 252.6 321.525 252.6 321.866C252.6 322.263 252.465 322.597 252.195 322.867ZM256.092 317.01C256.958 317.464 257.732 317.983 258.414 318.565C259.095 319.147 259.67 319.764 260.139 320.417C260.621 321.056 260.983 321.709 261.225 322.377C261.48 323.044 261.608 323.697 261.608 324.336C261.608 325.145 261.374 325.877 260.905 326.53C260.451 327.168 259.848 327.715 259.095 328.169C258.357 328.61 257.505 328.943 256.54 329.17C255.588 329.412 254.623 329.532 253.643 329.532C252.905 329.532 252.188 329.447 251.492 329.277C250.797 329.121 250.158 328.872 249.576 328.531C249.008 328.191 248.518 327.758 248.106 327.232C247.694 326.693 247.403 326.054 247.233 325.316C247.205 325.202 247.19 325.11 247.19 325.039C247.19 324.655 247.325 324.329 247.595 324.059C247.865 323.775 248.163 323.633 248.489 323.633C248.646 323.633 248.816 323.662 249.001 323.718C249.199 323.775 249.348 323.903 249.448 324.102C249.632 324.443 249.888 324.748 250.214 325.018C250.555 325.287 250.931 325.522 251.343 325.72C251.755 325.905 252.188 326.054 252.642 326.168C253.111 326.267 253.565 326.317 254.005 326.317C254.46 326.317 254.893 326.274 255.304 326.189C255.73 326.104 256.099 325.969 256.412 325.784C256.738 325.6 256.994 325.365 257.178 325.081C257.363 324.797 257.455 324.45 257.455 324.038C257.455 323.314 257.292 322.647 256.965 322.036C256.639 321.426 256.213 320.865 255.688 320.354C255.177 319.828 254.587 319.346 253.92 318.905C253.267 318.451 252.614 318.018 251.961 317.606C251.89 317.564 251.783 317.443 251.641 317.244C251.499 317.031 251.428 316.818 251.428 316.605C251.428 316.435 251.471 316.3 251.556 316.201C251.783 315.903 252.046 315.597 252.344 315.285C252.642 314.973 252.962 314.689 253.302 314.433C253.643 314.163 254.012 313.95 254.41 313.794C254.807 313.624 255.219 313.539 255.645 313.539C255.957 313.539 256.248 313.581 256.518 313.666C256.788 313.752 257.015 313.865 257.2 314.007C257.384 314.135 257.526 314.284 257.626 314.454C257.739 314.611 257.796 314.76 257.796 314.902C257.796 315.1 257.746 315.292 257.647 315.477C257.548 315.661 257.413 315.839 257.242 316.009C257.086 316.179 256.902 316.35 256.689 316.52C256.49 316.691 256.291 316.854 256.092 317.01Z" fill="black"/>
<path d="M82.1909 160.765C81.2874 161.113 80.59 161.176 80.0988 160.952C79.6075 160.728 79.244 160.467 79.0081 160.168C78.4774 159.496 77.9563 158.364 77.4449 156.771C76.9334 155.128 76.4218 153.161 75.91 150.871C75.3982 148.581 74.9257 146.116 74.4923 143.478C73.8444 144.2 73.2357 144.897 72.6663 145.57C72.0969 146.242 71.3802 147.126 70.5163 148.222L70.0451 148.82C69.6124 147.575 69.5529 146.405 69.8668 145.309C70.1806 144.164 70.74 143.081 71.545 142.06C71.8788 141.636 72.242 141.226 72.6347 140.827C73.0471 140.404 73.4693 139.968 73.9013 139.519C73.4678 136.482 73.0932 133.57 72.7777 130.781C72.4818 127.968 72.2548 125.392 72.0966 123.051C71.9384 120.662 71.8688 118.633 71.8877 116.965C71.8866 114.575 72.1021 113.106 72.534 112.558C72.8089 112.209 73.2214 111.96 73.7713 111.81C74.341 111.636 74.9794 111.523 75.6866 111.473C75.6475 111.921 75.7952 112.755 76.1297 113.975C76.4838 115.17 76.9854 116.626 77.6344 118.344C78.2834 120.011 79.0209 121.816 79.8468 123.758C80.6924 125.674 81.5871 127.578 82.5309 129.47C83.4747 131.362 84.4184 133.129 85.3621 134.772C86.3057 136.365 87.2001 137.696 88.0453 138.766C88.8316 139.762 89.4998 140.409 90.05 140.707C90.5805 140.981 91.0323 140.881 91.4053 140.408C91.8569 139.835 92.0725 138.69 92.0521 136.972C92.0317 135.254 91.6574 132.889 90.9293 129.877L92.0196 129.914C93.0227 132.727 93.5543 135.415 93.6143 137.98C93.694 140.519 93.1841 142.486 92.0846 143.881C91.1422 145.076 90.0717 145.413 88.8731 144.89C87.6549 144.343 86.3381 143.174 84.9229 141.382C84.4708 140.809 83.9892 140.125 83.4781 139.329C82.967 138.532 82.3576 137.512 81.6498 136.267C80.6483 137.189 79.7745 138.023 79.0283 138.77C78.2821 139.517 77.5654 140.227 76.8781 140.9C77.6064 144.211 78.4231 147.559 79.3283 150.944C80.2334 154.33 81.1876 157.603 82.1909 160.765ZM80.4996 134.064C79.5952 132.272 78.7202 130.418 77.8746 128.501C77.029 126.535 76.2522 124.631 75.5442 122.789C74.8361 120.897 74.2362 119.167 73.7444 117.599C73.6271 118.943 73.6475 120.636 73.8055 122.677C73.9636 124.719 74.2396 127.009 74.6336 129.548C75.0473 132.063 75.5494 134.739 76.14 137.577C76.8469 136.979 77.5637 136.393 78.2903 135.82C79.0169 135.248 79.7534 134.662 80.4996 134.064Z" fill="black"/>
<path d="M111.533 121.281C110.637 122.038 109.763 122.372 108.91 122.282C108.072 122.219 107.41 121.725 106.922 120.799C106.509 120.013 106.235 119.028 106.102 117.843C105.968 116.659 105.842 115.488 105.723 114.331C105.628 113.154 105.404 112.229 105.049 111.555C104.71 110.91 104.247 110.53 103.663 110.416C103.063 110.275 102.447 110.268 101.815 110.397C102.095 112.391 102.279 114.404 102.369 116.436C102.469 118.421 102.527 119.993 102.543 121.155L101.356 120.395C101.311 119.379 101.212 117.962 101.06 116.144C100.908 114.326 100.651 112.374 100.288 110.288C99.8983 110.213 99.5778 109.936 99.3267 109.459C98.9426 108.729 98.7745 107.878 98.8223 106.905C98.8701 105.932 99.0757 105.292 99.439 104.985C99.7296 104.739 100.039 104.762 100.367 105.052C100.704 105.294 100.91 105.485 100.984 105.626C101.057 105.766 101.13 106.07 101.201 106.537C101.296 106.984 101.363 107.312 101.404 107.521C101.59 107.809 101.959 107.944 102.509 107.925C103.068 107.858 103.706 107.805 104.421 107.768C105.136 107.731 105.843 107.844 106.541 108.105C107.238 108.367 107.823 108.947 108.296 109.845C108.724 110.659 109.003 111.62 109.131 112.728C109.259 113.836 109.358 114.888 109.427 115.884C109.496 116.88 109.671 117.644 109.952 118.177C110.159 118.57 110.384 118.765 110.627 118.762C110.88 118.711 111.128 118.582 111.37 118.378C111.951 117.886 112.453 117.178 112.876 116.253C113.284 115.3 113.621 114.244 113.887 113.087C114.153 111.93 114.331 110.806 114.422 109.715C114.498 108.597 114.502 107.64 114.434 106.846L115.705 106.867C115.88 108.463 115.842 110.218 115.59 112.134C115.324 114.022 114.857 115.795 114.19 117.453C113.509 119.084 112.623 120.36 111.533 121.281Z" fill="black"/>
<path d="M128.846 108.238C127.649 108.955 126.539 109.147 125.516 108.814C124.494 108.481 123.689 107.527 123.102 105.952C122.648 104.733 122.287 103.095 122.02 101.038C121.78 98.9651 121.627 96.7672 121.56 94.4448C121.347 94.4993 121.099 94.5932 120.816 94.7263C120.549 94.8134 120.271 94.8709 119.982 94.8986L119.467 93.5167C119.924 93.3156 120.295 93.1484 120.578 93.0153C120.888 92.8659 121.199 92.7165 121.509 92.567C121.494 90.65 121.541 88.768 121.652 86.9211C121.778 85.0281 121.952 83.3067 122.174 81.7568C122.422 80.1907 122.724 78.9017 123.079 77.8896C123.423 76.8478 123.826 76.1885 124.289 75.9117C124.561 75.7488 124.864 75.713 125.197 75.8041C125.52 75.8656 125.758 76.1044 125.914 76.5204C126.135 77.1147 126.165 78.1327 126.003 79.5742C125.869 80.9994 125.67 82.6993 125.407 84.6737C125.133 86.6184 124.926 88.6508 124.784 90.771C125.001 90.6407 125.219 90.5104 125.437 90.3801C125.655 90.2499 125.859 90.1277 126.049 90.0137C127.246 89.2972 128.316 88.6391 129.257 88.0394C130.215 87.3937 131.175 86.7101 132.137 85.9887L132.685 87.4597C131.244 88.504 129.914 89.4452 128.696 90.2835C127.477 91.1218 126.302 91.8977 125.17 92.6114C125.088 92.6603 125.007 92.7091 124.925 92.758C124.843 92.8069 124.762 92.8557 124.68 92.9046C124.651 94.7027 124.707 96.5047 124.847 98.3106C125.004 100.07 125.354 101.678 125.896 103.135C126.35 104.353 126.848 105.109 127.39 105.402C127.932 105.696 128.584 105.615 129.346 105.159C130.707 104.344 131.845 102.845 132.762 100.661C133.695 98.431 134.26 95.8394 134.458 92.8864L135.195 92.9901C135.141 95.1669 134.849 97.286 134.32 99.3476C133.817 101.393 133.103 103.183 132.177 104.718C131.263 106.283 130.152 107.456 128.846 108.238Z" fill="black"/>
<path d="M166.546 89.5645C165.148 89.8519 164.124 89.578 163.475 88.7429C162.862 87.9329 162.484 86.9774 162.343 85.8764C162.214 84.8698 162.239 83.8155 162.417 82.7136C162.59 81.5802 162.883 80.5031 163.294 79.4822C163.736 78.455 164.25 77.607 164.833 76.9381C165.444 76.2313 166.092 75.8077 166.775 75.6672C166.992 75.6225 167.247 75.6186 167.539 75.6555C167.857 75.6545 168.089 75.7199 168.233 75.8516C167.921 76.4001 167.607 77.0619 167.292 77.837C167.008 78.6057 166.745 79.4184 166.504 80.275C166.29 81.0939 166.14 81.9156 166.055 82.7404C165.969 83.5651 165.968 84.3078 166.053 84.9684C166.133 85.5975 166.309 86.0942 166.578 86.4584C166.879 86.8162 167.325 86.9345 167.915 86.8131C168.505 86.6918 169.162 86.2178 169.885 85.3911C170.635 84.5266 171.326 83.5773 171.959 82.5433C170.848 81.8354 170.007 80.9914 169.435 80.0113C168.859 78.9998 168.473 77.7233 168.275 76.1819C168.191 75.5213 168.25 74.7344 168.451 73.8212C168.684 72.9017 169.118 72.0538 169.752 71.2778C170.417 70.4954 171.37 69.9764 172.613 69.721C173.949 69.4463 174.929 69.6322 175.554 70.2785C176.21 70.9185 176.604 71.7576 176.737 72.7956C176.886 73.9595 176.742 75.3288 176.306 76.9036C175.901 78.4719 175.362 79.9872 174.688 81.4494C175.085 81.5615 175.532 81.5664 176.029 81.4642C176.495 81.3684 177.04 81.1434 177.664 80.789C178.289 80.4347 178.879 79.942 179.436 79.311C179.989 78.6485 180.395 77.8385 180.655 76.8811L181.572 77.322C181.094 79.0668 180.329 80.4349 179.276 81.4262C178.251 82.3796 177.194 82.9681 176.107 83.1916C175.703 83.2747 175.295 83.3262 174.883 83.3464C174.468 83.335 174.081 83.3016 173.723 83.246C172.828 84.7214 171.757 86.0715 170.511 87.2962C169.265 88.521 167.943 89.277 166.546 89.5645ZM172.977 80.7842C173.582 79.53 174.068 78.2194 174.435 76.8526C174.802 75.4857 174.917 74.2675 174.78 73.198C174.687 72.4745 174.512 71.9778 174.254 71.708C173.993 71.4067 173.644 71.3007 173.209 71.3901C172.619 71.5115 172.068 72.0607 171.555 73.0378C171.043 74.0149 170.869 75.1482 171.034 76.438C171.119 77.0986 171.33 77.8783 171.668 78.7773C172.038 79.6699 172.474 80.3389 172.977 80.7842Z" fill="black"/>
<path d="M189.058 97.4174C188.709 97.4194 188.296 97.3108 187.819 97.0916C187.311 96.8726 186.882 96.4311 186.53 95.7671C186.147 95.1351 185.954 94.169 185.949 92.8687C185.944 91.5051 186.175 89.7119 186.643 87.4892C187.079 85.2984 187.704 82.8687 188.519 80.1999C189.302 77.4997 190.228 74.7352 191.296 71.9065C192.396 69.0775 193.559 66.3592 194.787 63.7516C196.046 61.112 197.337 58.7418 198.662 56.641C200.018 54.54 201.359 52.8672 202.687 51.6226C204.014 50.378 205.296 49.7521 206.533 49.7449C207.358 49.7401 207.898 49.9907 208.153 50.4966C208.409 50.9709 208.538 51.5251 208.54 52.1594C208.545 53.523 208.17 55.0158 207.414 56.6376C206.691 58.2592 205.714 59.8981 204.483 61.5544C203.252 63.179 201.862 64.7252 200.314 66.193C198.797 67.6607 197.231 68.9225 195.618 69.9785C195.492 70.2964 195.366 70.6142 195.241 70.9321C195.115 71.25 194.989 71.5678 194.864 71.8857C195.213 72.0105 195.483 72.2309 195.675 72.547C195.898 72.8628 196.026 73.1951 196.059 73.5437C196.318 74.9059 196.576 76.1254 196.833 77.2021C197.091 78.2472 197.474 79.0695 197.984 79.6691C198.525 80.2685 199.287 80.5654 200.271 80.5596C201.38 80.5532 202.362 80.1352 203.215 79.3057C204.069 78.4761 204.936 77.3135 205.819 75.8178L206.868 76.5729C205.861 78.6084 204.725 80.1056 203.46 81.0643C202.194 81.9914 201.054 82.4579 200.04 82.4638C199.5 82.467 198.929 82.3593 198.326 82.1408C197.754 81.9221 197.198 81.6082 196.657 81.1991C196.633 83.1655 196.402 85.1014 195.965 87.0068C195.56 88.9437 194.995 90.6912 194.271 92.2494C193.548 93.8076 192.728 95.0492 191.811 95.9742C190.927 96.9308 190.009 97.4119 189.058 97.4174ZM190.379 94.4603C190.728 94.4583 191.091 94.1549 191.47 93.5501C191.88 92.9452 192.273 92.15 192.65 91.1647C193.027 90.1794 193.372 89.0833 193.685 87.8763C193.998 86.7011 194.247 85.5262 194.433 84.3517C194.619 83.2089 194.711 82.1619 194.707 81.2105C194.704 80.2908 194.59 79.4827 194.365 78.7863C194.172 78.0581 193.821 77.2514 193.31 76.3664C192.589 78.5588 191.946 80.6716 191.383 82.7045C190.819 84.7375 190.382 86.5794 190.071 88.2304C189.76 89.913 189.606 91.3093 189.61 92.4193C189.615 93.7829 189.871 94.4633 190.379 94.4603ZM196.985 66.6406C198.913 64.8217 200.556 63.052 201.913 61.3315C203.271 59.6111 204.296 58.0987 204.989 56.7944C205.713 55.4582 206.075 54.5205 206.073 53.9814C206.072 53.7277 205.945 53.6016 205.691 53.6031C204.93 53.6075 204.06 54.1993 203.081 55.3784C202.102 56.5258 201.093 58.0856 200.053 60.0579C199.014 62.0303 197.991 64.2245 196.985 66.6406Z" fill="black"/>
<path d="M234.598 94.3166C235.06 93.2844 235.541 92.243 236.04 91.1923C236.568 90.1538 237.172 89.0108 237.852 87.7632C238.561 86.5278 239.395 85.1233 240.354 83.5497C241.342 81.9883 242.509 80.1778 243.853 78.1183C243.406 77.9663 242.91 77.8115 242.367 77.6537C241.854 77.508 241.373 77.3592 240.926 77.2073C241.181 76.2248 241.727 75.6188 242.565 75.3892C243.403 75.1595 244.424 75.1594 245.63 75.3887C245.858 75.0076 246.048 74.7125 246.2 74.5035C246.351 74.2944 246.533 74.03 246.746 73.7103C246.958 73.3906 247.265 72.9571 247.666 72.4098C248.075 71.8318 248.629 71.008 249.328 69.9383C250.056 68.8807 251 67.4882 252.161 65.7605C252.26 65.6314 252.442 65.367 252.707 64.9674C252.973 64.5678 253.157 64.1684 253.261 63.7693C253.324 63.5237 253.324 63.3366 253.26 63.2079C253.226 63.0915 253.091 62.9845 252.857 62.8871C252.271 62.6435 251.599 62.6702 250.841 62.9671C250.113 63.2761 249.388 63.7569 248.668 64.4095C247.955 65.0314 247.333 65.742 246.802 66.5412C246.279 67.3098 245.925 68.0471 245.743 68.7532C245.679 68.9988 245.637 69.2873 245.616 69.6187C245.595 69.95 245.605 70.4132 245.645 71.0082C244.415 70.4967 243.594 69.849 243.181 69.065C242.805 68.2625 242.732 67.4161 242.962 66.5257C243.233 65.4819 243.796 64.5599 244.652 63.7596C245.537 62.9715 246.559 62.3425 247.719 61.8726C248.916 61.3841 250.109 61.0982 251.298 61.0147C252.525 60.9126 253.592 61.0504 254.5 61.4279C255.437 61.8176 256.013 62.3465 256.23 63.0145C256.446 63.6826 256.47 64.3389 256.303 64.9837C256.216 65.3214 256.085 65.6408 255.909 65.942C255.763 66.2553 255.607 66.5472 255.439 66.8177L249.371 76.5365C249.73 76.6519 250.086 76.7827 250.437 76.9288C250.818 77.0871 251.198 77.2455 251.579 77.4038C253.014 78.0005 254.353 78.5914 255.596 79.1764C256.839 79.7615 258.031 80.359 259.17 80.9689C260.57 78.6945 261.733 76.8319 262.66 75.3811C263.617 73.9424 264.425 72.765 265.083 71.8488C265.78 70.9141 266.396 70.0992 266.933 69.4043C267.114 69.2074 267.358 68.952 267.666 68.6381C268.012 68.3057 268.429 68.0713 268.919 67.9348C269.446 67.7797 270.06 67.8484 270.763 68.1406C270.104 69.0568 269.266 70.2896 268.248 71.8388C267.268 73.3696 266.23 75.0631 265.133 76.9193C264.044 78.7449 262.988 80.5673 261.965 82.3865C262.375 82.557 262.938 82.8252 263.655 83.191C264.408 83.5383 265.107 83.846 265.751 84.1139C264.597 84.6881 263.636 84.9519 262.87 84.9052C262.112 84.8278 261.44 84.6674 260.854 84.4238C260.166 85.7021 259.524 86.9311 258.926 88.111C258.329 89.2908 257.799 90.3968 257.337 91.4289C256.477 93.2476 255.768 94.8573 255.211 96.2578C254.691 97.6399 254.312 98.7914 254.073 99.7124C253.946 100.204 253.849 100.64 253.783 101.02C253.738 101.444 253.698 101.852 253.661 102.244C252.207 101.47 251.282 100.66 250.884 99.8145C250.508 99.012 250.515 97.8586 250.905 96.3542C251.087 95.6481 251.334 94.8835 251.644 94.0604C251.984 93.2495 252.437 92.3156 253.003 91.2585C253.531 90.22 254.191 89.0492 254.982 87.7461C255.774 86.4429 256.717 84.9307 257.811 83.2094C256.025 82.4666 254.543 81.8669 253.363 81.4105C252.184 80.9541 251.151 80.5586 250.265 80.2239C249.378 79.8893 248.484 79.5854 247.582 79.3121C247.521 79.4227 247.38 79.6533 247.159 80.0036C246.939 80.354 246.551 80.9749 245.996 81.8663C245.441 82.7576 244.616 84.0639 243.522 85.7852C242.427 87.5065 240.953 89.8179 239.099 92.7196C238.482 93.7215 237.719 94.2884 236.809 94.4201C235.892 94.5825 235.155 94.548 234.598 94.3166Z" fill="black"/>
<path d="M268.212 110.185C267.371 109.562 266.79 108.708 266.47 107.621C266.125 106.516 266.244 105.33 266.828 104.062C267.292 103.054 268.001 102.111 268.953 101.232C269.905 100.353 271.003 99.601 272.248 98.977C273.492 98.3531 274.786 97.9198 276.128 97.6772C277.484 97.4058 278.817 97.3688 280.128 97.5662C281.438 97.7635 282.616 98.2489 283.661 99.0223C284.757 99.8335 285.542 100.839 286.015 102.038C286.488 103.238 286.485 104.356 286.007 105.393C285.649 106.171 285.148 106.553 284.505 106.541C283.861 106.528 283.241 106.204 282.644 105.57C282.815 105.348 282.973 105.117 283.117 104.877C283.288 104.655 283.439 104.401 283.572 104.113C283.838 103.537 283.974 102.943 283.983 102.331C283.991 101.719 283.664 101.168 283.001 100.677C282.287 100.149 281.435 99.8853 280.443 99.8855C279.452 99.8857 278.406 100.078 277.307 100.461C276.246 100.835 275.202 101.356 274.176 102.026C273.163 102.667 272.271 103.378 271.5 104.16C270.73 104.942 270.159 105.736 269.788 106.542C269.363 107.464 269.444 108.142 270.03 108.575C270.616 109.009 271.412 109.174 272.418 109.068C273.437 108.934 274.529 108.641 275.694 108.19C276.885 107.758 278.044 107.283 279.171 106.765C280.311 106.219 281.29 105.765 282.106 105.403C282.249 105.316 282.384 105.319 282.511 105.413C282.6 105.518 282.758 105.731 282.985 106.054C283.252 106.367 283.466 106.718 283.628 107.108C283.79 107.499 283.798 107.852 283.652 108.169C283.519 108.457 283.232 108.747 282.79 109.038C282.387 109.319 281.906 109.62 281.348 109.941C280.829 110.252 280.329 110.596 279.847 110.973C279.404 111.341 279.07 111.769 278.844 112.259C278.672 112.634 278.595 113.06 278.615 113.537C278.647 113.986 278.867 114.362 279.275 114.663C279.887 115.116 280.973 115.244 282.534 115.047C284.133 114.84 286.071 113.937 288.346 112.338L288.694 113.696C287.366 114.799 285.989 115.634 284.565 116.203C283.18 116.761 281.863 117.022 280.614 116.987C279.353 116.98 278.237 116.619 277.269 115.902C276.224 115.128 275.619 114.178 275.454 113.052C275.289 111.926 275.38 110.912 275.727 110.01C275.754 109.953 275.774 109.91 275.787 109.881C275.8 109.852 275.813 109.823 275.827 109.794C274.17 110.422 272.722 110.819 271.484 110.984C270.271 111.168 269.181 110.902 268.212 110.185Z" fill="black"/>
<path d="M292.314 130.885C291.344 129.881 290.84 128.782 290.802 127.587C290.764 126.392 291.063 125.302 291.698 124.315C292.093 123.702 292.68 123.02 293.457 122.27C294.234 121.519 295.104 120.797 296.065 120.103C297.066 119.406 298.067 118.82 299.07 118.347C300.073 117.874 300.997 117.608 301.842 117.55C302.705 117.465 303.379 117.674 303.864 118.176C304.128 118.449 304.291 118.795 304.352 119.214C304.43 119.606 304.349 119.988 304.108 120.361C303.885 120.708 303.374 121.045 302.574 121.374C301.797 121.725 300.885 122.114 299.838 122.542C298.814 122.992 297.807 123.528 296.819 124.149C295.87 124.767 295.112 125.516 294.545 126.395C293.996 127.248 293.748 127.947 293.801 128.491C293.894 129.031 294.183 129.552 294.667 130.054C295.417 130.829 296.524 131.22 297.99 131.226C299.455 131.232 301.392 130.592 303.799 129.306L303.883 130.459C301.6 132.007 299.443 132.818 297.411 132.893C295.379 132.968 293.68 132.299 292.314 130.885ZM307.835 116.886C307.416 116.453 307.108 115.934 306.91 115.329C306.751 114.721 306.843 114.15 307.187 113.616C307.599 112.977 308.238 112.727 309.103 112.866C309.968 113.006 310.709 113.395 311.326 114.034C311.722 114.444 311.984 114.893 312.111 115.38C312.26 115.89 312.155 116.424 311.794 116.984C311.433 117.544 310.828 117.828 309.977 117.837C309.144 117.819 308.43 117.502 307.835 116.886Z" fill="black"/>
<path d="M309.105 152.438C308.416 151.488 308.064 150.478 308.048 149.406C308.012 148.358 308.335 147.437 309.016 146.643C309.595 145.969 310.344 145.427 311.266 145.016C312.188 144.605 313.099 144.206 314 143.819C314.919 143.458 315.627 142.989 316.123 142.411C316.598 141.858 316.85 141.208 316.881 140.462C316.932 139.692 316.874 138.93 316.708 138.176C315.162 138.935 313.592 139.581 311.997 140.114C310.441 140.648 309.205 141.046 308.289 141.308L308.768 139.683C309.566 139.417 310.675 139.001 312.094 138.436C313.514 137.871 315.029 137.148 316.638 136.267C316.658 135.77 316.844 135.317 317.195 134.907C317.732 134.282 318.387 133.897 319.16 133.754C319.933 133.612 320.459 133.733 320.739 134.118C320.962 134.426 320.976 134.812 320.78 135.277C320.623 135.744 320.493 136.038 320.39 136.158C320.287 136.279 320.054 136.431 319.693 136.616C319.35 136.826 319.098 136.978 318.936 137.071C318.728 137.361 318.659 137.844 318.73 138.519C318.84 139.196 318.946 139.973 319.048 140.849C319.15 141.725 319.134 142.621 318.998 143.537C318.862 144.453 318.464 145.296 317.803 146.066C317.204 146.764 316.474 147.308 315.613 147.696C314.751 148.084 313.93 148.425 313.151 148.717C312.372 149.009 311.787 149.384 311.394 149.841C311.105 150.178 310.974 150.496 311.001 150.796C311.068 151.098 311.194 151.377 311.38 151.634C311.827 152.25 312.438 152.723 313.211 153.053C314.005 153.36 314.872 153.557 315.813 153.645C316.754 153.733 317.659 153.72 318.529 153.606C319.42 153.468 320.175 153.274 320.795 153.026L320.908 154.6C319.666 155.147 318.277 155.464 316.739 155.551C315.222 155.614 313.774 155.405 312.397 154.926C311.041 154.422 309.943 153.593 309.105 152.438Z" fill="black"/>
<path d="M148.852 122.198C148.721 122.363 149.472 124.472 150.483 126.869C151.494 129.267 152.766 132.285 153.288 133.525C153.777 134.765 155.148 138.031 156.289 140.759C157.464 143.488 158.964 147.126 159.649 148.821C160.334 150.516 161.411 153.12 162.063 154.608C163.531 157.998 165.586 162.918 167.445 167.424C170.675 175.361 171.425 176.601 173.774 178.131C175.013 178.957 177.623 181.024 181.179 184.001C181.962 184.662 182.679 185.2 182.777 185.2C182.875 185.2 183.495 185.737 184.147 186.357C185.354 187.598 186.789 188.3 186.789 187.68C186.789 187.473 185.485 184.828 183.886 181.81C181.277 176.808 176.025 166.556 175.209 164.861C175.046 164.489 174.492 163.455 174.035 162.587C172.502 159.776 168.685 152.335 168.555 151.921C168.489 151.673 168.033 150.846 167.576 150.061C167.119 149.275 166.532 148.242 166.336 147.787C163.596 142.165 160.856 136.915 160.073 135.716C159.878 135.468 158.997 133.897 158.116 132.202C157.203 130.549 155.409 127.613 154.104 125.67C151.918 122.487 151.592 122.157 150.385 122.033C149.667 121.95 148.982 122.033 148.852 122.198Z" fill="black"/>
<path d="M244.43 127.2C244.332 127.407 244.919 128.564 245.702 129.804C246.485 131.045 247.529 132.822 248.018 133.732C248.475 134.641 249.812 136.956 250.954 138.858C252.063 140.76 253.009 142.454 253.009 142.62C253.009 142.785 252.813 143.157 252.552 143.405C252.194 143.819 251.867 143.529 250.921 142.082C250.269 141.09 249.747 140.057 249.747 139.767C249.747 139.519 249.617 139.313 249.486 139.313C249.356 139.313 248.344 137.783 247.235 135.881C244.919 131.913 243.875 130.59 243.875 131.541C243.875 131.871 245.082 134.269 246.583 136.791C248.051 139.354 249.421 141.71 249.584 142.082C249.78 142.454 250.171 143.116 250.497 143.529C251.15 144.397 251.215 144.935 250.693 145.307C250.236 145.679 249.519 144.687 245.767 138.362C243.06 133.814 241.266 131.251 241.266 131.995C241.266 132.492 242.244 134.517 243.027 135.592C243.484 136.295 243.875 136.915 243.875 137.039C243.875 137.163 244.985 139.147 246.355 141.462C247.725 143.736 248.866 145.927 248.899 146.299C248.997 148.077 247.594 146.464 244.463 141.173C240.124 133.856 239.309 132.657 239.309 133.608C239.309 134.021 239.439 134.352 239.602 134.352C239.765 134.352 239.961 134.683 240.091 135.055C240.352 136.088 240.679 136.708 244.006 142.33C246.909 147.333 247.366 148.49 246.485 148.697C246.028 148.779 241.918 142.289 241.918 141.421C241.918 141.173 241.722 140.842 241.494 140.677C241.233 140.511 240.483 139.354 239.798 138.155C239.08 136.998 238.395 136.005 238.265 136.005C237.841 136.005 237.971 137.163 238.493 137.824C238.754 138.155 238.982 138.527 238.982 138.651C238.982 138.775 240.385 141.214 242.081 144.108C243.778 147.002 245.18 149.648 245.18 149.937C245.18 150.226 244.919 150.474 244.626 150.474C244.136 150.474 240.287 144.397 239.145 141.834C238.591 140.635 236.047 137.411 236.047 137.948C236.047 138.527 238.232 142.62 241.168 147.539C243.158 150.888 243.68 152.541 242.799 152.541C242.375 152.541 239.341 147.663 238.917 146.258C238.787 145.844 238.526 145.514 238.33 145.514C238.167 145.514 238.004 145.224 238.004 144.893C238.004 144.563 237.873 144.273 237.743 144.273C237.58 144.273 236.829 143.157 236.047 141.793C235.264 140.429 234.513 139.313 234.35 139.313C233.926 139.313 234.057 140.429 234.579 140.966C234.84 141.256 235.068 141.752 235.068 142.082C235.068 142.372 235.296 142.744 235.557 142.868C235.818 143.033 236.047 143.281 236.047 143.488C236.047 143.695 237.319 146.01 238.852 148.614C241.429 152.955 241.886 154.195 240.842 154.195C240.483 154.195 238.004 150.433 238.004 149.896C238.004 149.772 237.58 149.069 237.025 148.325C236.503 147.581 236.047 146.754 236.047 146.423C236.047 146.134 235.818 145.803 235.557 145.679C235.296 145.514 235.068 145.266 235.068 145.059C235.068 144.852 234.579 144.067 233.959 143.24C233.339 142.454 232.784 141.545 232.687 141.256C232.621 141.008 232.426 140.884 232.295 141.049C232.002 141.421 233.535 144.48 237.09 150.557C238.526 152.996 239.602 155.187 239.472 155.435C239.113 156.138 238.265 155.89 238.102 155.022C238.004 154.567 237.841 154.195 237.71 154.195C237.449 154.195 235.068 150.226 235.068 149.772C235.068 149.565 234.742 149.027 234.318 148.573C233.926 148.077 233.013 146.63 232.295 145.348C231.577 144.108 230.795 143.033 230.599 143.033C230.371 143.033 230.175 143.116 230.175 143.24C230.175 143.612 231.61 146.134 231.904 146.258C232.034 146.34 232.132 146.588 232.132 146.795C232.132 147.002 233.372 149.276 234.905 151.88C236.438 154.443 237.678 156.758 237.678 157.006C237.678 157.957 236.471 157.502 235.786 156.262C235.394 155.601 235.068 154.856 235.068 154.608C235.068 154.402 234.937 154.195 234.807 154.195C234.481 154.195 232.132 150.226 232.132 149.648C232.132 149.441 232.002 149.234 231.871 149.234C231.708 149.234 230.958 148.118 230.175 146.754C228.87 144.439 228.218 143.777 228.218 144.604C228.218 144.811 228.674 145.762 229.196 146.671C229.751 147.622 230.175 148.49 230.175 148.614C230.175 148.738 231.512 151.053 233.111 153.782C234.742 156.51 236.047 158.825 236.047 158.949C236.047 159.073 235.688 159.156 235.264 159.156C234.676 159.156 234.187 158.577 233.241 156.799C232.523 155.476 231.838 154.195 231.643 153.906C231.48 153.616 231.023 152.913 230.664 152.293C230.305 151.715 229.816 150.97 229.62 150.681C229.392 150.35 229.196 150.02 229.196 149.896C229.196 149.772 228.707 149.027 228.087 148.201C227.467 147.415 226.913 146.506 226.815 146.216C226.75 145.968 226.554 145.844 226.423 146.01C226.13 146.34 227.108 148.531 228.315 150.226C228.805 150.929 229.196 151.632 229.196 151.839C229.196 152.004 230.305 154.03 231.675 156.303C233.339 159.073 234.057 160.603 233.828 160.892C233.469 161.347 232.132 160.644 232.132 159.941C232.132 159.734 231.675 158.949 231.153 158.205C230.599 157.461 230.077 156.551 229.979 156.138C229.881 155.766 229.653 155.435 229.49 155.435C229.327 155.435 229.196 155.228 229.196 154.98C229.196 154.774 228.772 153.988 228.218 153.244C227.696 152.5 227.239 151.715 227.239 151.508C227.206 150.805 224.662 147.829 224.401 148.159C224.27 148.325 224.368 148.697 224.629 148.986C225.119 149.482 225.771 150.598 226.162 151.715C226.293 152.045 227.663 154.526 229.261 157.171C230.827 159.817 232.132 162.215 232.132 162.463C232.132 163.414 230.762 162.835 230.24 161.636C229.946 160.975 229.588 160.396 229.457 160.396C229.294 160.396 229.196 160.189 229.196 159.941C229.196 159.734 228.772 158.949 228.218 158.205C227.696 157.461 227.239 156.675 227.239 156.469C227.239 156.221 226.75 155.352 226.13 154.526C225.51 153.699 224.531 152.169 223.944 151.136C222.933 149.317 222.346 148.779 222.346 149.606C222.346 149.854 222.509 150.144 222.705 150.268C222.868 150.433 223.161 150.97 223.357 151.425C223.781 152.748 224.173 153.451 227.337 158.825C228.903 161.471 230.175 163.868 230.175 164.117C230.175 164.323 229.946 164.53 229.718 164.53C229.131 164.53 227.239 162.05 227.239 161.305C227.239 161.016 227.011 160.685 226.75 160.561C226.489 160.396 226.26 160.148 226.26 159.9C226.26 159.693 225.836 158.949 225.282 158.205C224.76 157.461 224.303 156.675 224.303 156.469C224.303 156.221 223.651 155.146 222.868 154.071C222.052 152.996 221.237 151.797 221.074 151.425C220.78 150.764 220.747 150.764 220.715 151.591C220.715 152.128 220.813 152.541 220.976 152.541C221.106 152.541 221.465 153.285 221.824 154.195C222.15 155.063 222.639 155.89 222.868 156.014C223.129 156.138 223.325 156.469 223.325 156.758C223.325 157.089 223.716 157.874 224.238 158.577C224.727 159.28 225.673 160.892 226.391 162.174C227.076 163.455 227.761 164.53 227.924 164.53C228.087 164.53 228.218 164.985 228.218 165.563C228.218 166.142 228.087 166.597 227.891 166.597C227.565 166.597 226.26 165.109 226.26 164.695C226.26 164.571 225.836 163.91 225.282 163.166C224.76 162.422 224.303 161.636 224.303 161.429C224.303 161.181 223.912 160.437 223.422 159.734C221.824 157.585 220.389 155.104 220.389 154.65C220.389 154.402 220.226 154.195 220.03 154.195C219.801 154.195 219.443 153.864 219.214 153.492C218.986 153.079 218.692 152.913 218.529 153.079C218.399 153.285 218.497 153.658 218.758 153.947C219.312 154.484 219.932 155.642 220.389 156.965C220.552 157.502 220.845 157.916 221.041 157.916C221.204 157.916 221.367 158.122 221.367 158.329C221.367 158.577 221.498 158.99 221.693 159.28C221.857 159.569 222.835 161.181 223.879 162.876C224.89 164.571 225.836 166.018 225.999 166.101C226.13 166.183 226.26 166.597 226.26 167.052C226.26 168.54 225.119 167.92 224.075 165.853C223.52 164.778 222.672 163.455 222.215 162.918C221.759 162.339 221.367 161.719 221.367 161.471C221.367 161.223 220.845 160.272 220.193 159.362C219.541 158.453 218.562 156.923 218.007 155.931C217.453 154.98 216.898 154.195 216.735 154.195C216.311 154.195 216.442 155.352 216.898 155.725C217.127 155.89 217.909 157.213 218.595 158.618C219.28 160.065 219.965 161.223 220.095 161.223C220.258 161.223 220.389 161.429 220.389 161.636C220.389 162.215 223.716 167.837 224.042 167.837C224.205 167.837 224.303 168.375 224.303 169.077C224.303 169.739 224.205 170.317 224.075 170.317C223.716 170.317 222.118 167.92 220.878 165.563C220.291 164.406 219.508 163.083 219.116 162.587C218.725 162.091 218.431 161.512 218.431 161.305C218.431 161.14 217.616 159.9 216.637 158.577C215.659 157.295 214.843 156.345 214.876 156.551C214.908 157.213 217.746 162.546 218.203 162.794C218.334 162.876 218.431 163.124 218.431 163.331C218.431 163.579 218.595 163.951 218.758 164.241C220.682 167.093 222.639 170.938 222.346 171.31C221.922 171.847 221.008 171.186 220.519 169.945C220.323 169.449 219.834 168.581 219.41 168.044C218.986 167.506 218.366 166.39 217.975 165.646C217.224 164.075 215.789 161.801 214.452 159.941C213.93 159.28 213.538 158.536 213.538 158.329C213.538 158.081 213.408 157.916 213.212 157.916C213.049 157.916 212.886 158.205 212.886 158.536C212.886 158.866 213.049 159.156 213.212 159.156C213.408 159.156 213.538 159.362 213.538 159.61C213.538 159.859 213.995 160.768 214.517 161.636C215.072 162.504 215.496 163.331 215.496 163.455C215.496 163.62 215.659 163.951 215.822 164.241C216.018 164.53 216.964 166.142 217.975 167.837C218.953 169.532 219.899 170.979 220.062 171.062C220.487 171.268 220.487 173.625 220.095 173.625C219.769 173.625 219.573 173.335 215.985 167.217C212.788 161.719 211.973 160.561 211.679 160.933C211.548 161.14 211.614 161.595 211.842 161.967C212.07 162.339 212.331 162.918 212.462 163.207C212.56 163.538 213.082 164.365 213.571 165.067C214.093 165.77 214.517 166.556 214.517 166.804C214.517 167.01 214.974 167.837 215.496 168.623C216.05 169.367 216.474 170.152 216.474 170.276C216.474 170.441 216.931 171.144 217.453 171.93C218.497 173.335 218.855 174.865 218.236 175.154C218.073 175.237 217.257 174.162 216.474 172.798C215.691 171.434 214.941 170.317 214.778 170.317C214.647 170.317 214.517 170.111 214.517 169.863C214.517 169.615 213.865 168.375 213.082 167.093C211.516 164.489 208.971 161.016 208.971 161.388C208.971 161.801 209.722 163.372 210.635 164.943C211.092 165.729 211.581 166.721 211.679 167.093C211.809 167.506 212.038 167.837 212.234 167.837C212.397 167.837 212.56 168.085 212.56 168.375C212.56 168.664 213.016 169.449 213.538 170.111C214.093 170.772 214.517 171.475 214.517 171.682C214.517 171.93 215.039 172.922 215.691 173.914C216.866 175.692 216.964 176.932 215.985 176.932C215.724 176.932 215.496 176.642 215.496 176.312C215.496 175.94 215.267 175.568 215.006 175.444C214.745 175.278 214.517 175.03 214.517 174.782C214.517 174.327 210.896 168.25 210.146 167.465C209.852 167.176 209.624 166.762 209.624 166.556C209.624 166.142 208.156 164.117 207.862 164.117C207.471 164.117 207.667 165.398 208.123 165.605C208.384 165.729 208.678 166.266 208.776 166.845C208.906 167.382 209.135 167.837 209.298 167.837C209.493 167.837 209.624 168.126 209.624 168.457C209.624 168.788 209.754 169.077 209.917 169.077C210.081 169.077 210.57 169.78 210.961 170.607C211.385 171.475 212.494 173.459 213.44 175.03C215.332 178.089 215.463 178.585 214.582 178.585C214.028 178.585 212.56 176.891 212.56 176.229C212.56 176.105 212.005 175.154 211.353 174.121C210.668 173.087 209.787 171.558 209.363 170.772C208.939 169.987 208.221 168.829 207.797 168.25C207.373 167.672 206.819 166.845 206.558 166.39C206.297 165.935 205.97 165.687 205.84 165.894C205.709 166.059 206.166 167.217 206.884 168.457C207.569 169.739 208.352 171.227 208.58 171.764C208.808 172.343 209.135 172.798 209.33 172.798C209.493 172.798 209.624 173.087 209.624 173.418C209.624 173.749 209.754 174.038 209.95 174.038C210.113 174.038 210.635 174.865 211.124 175.898C211.581 176.932 212.07 177.759 212.168 177.759C212.494 177.759 213.18 179.743 212.951 180.032C212.658 180.404 211.581 180.28 211.581 179.826C211.581 179.371 205.97 169.78 204.861 168.333C203.491 166.556 203.752 168.168 205.22 170.69C206.036 172.095 206.688 173.294 206.688 173.418C206.688 173.707 207.308 174.7 208.091 175.609C208.384 175.981 208.645 176.518 208.645 176.849C208.645 177.139 208.874 177.469 209.135 177.593C209.396 177.759 209.624 178.089 209.624 178.337C209.624 178.627 209.983 179.288 210.439 179.826C211.222 180.735 211.548 182.306 210.994 182.306C210.439 182.306 209.624 181.107 206.753 176.312C205.155 173.583 203.459 170.814 203.002 170.111C201.436 167.878 201.762 169.325 203.491 172.591C204.437 174.369 205.416 176.229 205.644 176.766C205.873 177.304 206.199 177.759 206.394 177.759C206.558 177.759 206.688 178.007 206.688 178.337C206.688 178.668 206.786 178.999 206.949 179.082C207.308 179.288 209.298 183.009 209.298 183.505C209.298 184.456 207.993 183.918 207.536 182.802C206.982 181.438 201.893 172.922 200.849 171.599C200.458 171.103 200.033 170.731 199.968 170.855C199.74 171.144 200.197 172.384 200.523 172.384C200.686 172.384 200.816 172.591 200.816 172.839C200.816 173.087 201.469 174.369 202.284 175.692C203.1 177.015 203.752 178.213 203.752 178.379C203.752 178.627 204.176 179.33 205.155 180.694C205.448 181.107 205.709 181.603 205.709 181.769C205.709 181.975 206.166 182.637 206.688 183.298C207.732 184.58 207.797 185.324 206.949 185.531C206.655 185.613 205.383 183.794 203.589 180.776C202.023 178.089 200.458 175.568 200.099 175.154C199.772 174.741 199.251 173.955 198.957 173.377C198.598 172.674 198.337 172.467 198.109 172.757C197.848 173.087 197.913 173.418 198.305 173.914C198.924 174.741 204.242 183.918 205.155 185.737C205.709 186.853 205.677 187.68 205.057 187.68C204.894 187.68 203.165 185.034 201.24 181.769C197.391 175.278 196.543 173.997 196.184 174.286C195.923 174.493 197.228 177.097 199.414 180.735C200.197 182.017 200.816 183.174 200.816 183.298C200.816 183.422 201.077 183.877 201.404 184.332C203.328 186.936 204.046 188.879 203.198 189.21C202.741 189.416 202.774 189.416 199.414 183.712C197.946 181.19 196.51 178.833 196.249 178.503C195.989 178.131 195.467 177.345 195.14 176.766C194.194 175.113 193.803 175.485 194.651 177.221C195.075 178.089 195.532 178.833 195.662 178.916C195.793 178.999 195.923 179.247 195.923 179.495C195.923 179.743 196.38 180.611 196.902 181.479C197.456 182.347 197.881 183.257 197.881 183.505C197.881 183.753 198.011 183.96 198.141 183.96C198.468 183.96 200.816 187.928 200.816 188.466C200.816 188.672 201.045 188.92 201.306 189.086C201.828 189.334 201.991 190.781 201.534 191.153C201.045 191.525 200.327 190.409 193.672 178.875C191.748 175.526 191.422 176.312 192.792 181.107C194.586 187.515 194.945 189.292 194.945 192.186V194.956L197.978 197.478C199.609 198.842 201.273 200.165 201.632 200.413C202.35 200.868 201.632 201.488 218.79 185.407C222.411 181.975 226.065 178.627 226.88 177.965C228.511 176.56 237.156 168.499 238.982 166.638C239.602 166.018 240.581 165.15 241.103 164.695C241.657 164.282 244.365 161.801 247.137 159.197C249.91 156.593 253.303 153.409 254.64 152.169C259.305 147.787 259.827 146.506 258.424 142.868C257.609 140.801 254.542 136.832 249.91 131.913C249.029 130.921 247.659 129.432 246.877 128.523C245.506 126.993 244.724 126.539 244.43 127.2ZM255.293 146.175C255.293 146.712 254.575 147.994 254.281 147.994C254.118 147.994 252.487 149.4 250.726 151.094C248.964 152.789 247.333 154.195 247.137 154.195C246.974 154.195 246.811 154.36 246.811 154.526C246.811 154.856 243.712 157.916 243.386 157.916C243.223 157.916 242.603 158.536 240.776 160.479C240.189 161.14 239.602 161.636 239.504 161.636C239.374 161.636 237.808 163.042 236.047 164.737C234.285 166.432 232.654 167.837 232.458 167.837C232.295 167.837 232.132 168.002 232.132 168.168C232.132 168.499 229.033 171.558 228.707 171.558C228.642 171.558 228.283 171.806 227.989 172.136C225.804 174.369 218.04 181.479 217.779 181.479C217.583 181.479 217.453 181.645 217.453 181.81C217.453 182.223 214.321 185.2 213.865 185.2C213.701 185.2 213.538 185.365 213.538 185.572C213.538 185.779 213.277 186.068 212.984 186.192C212.658 186.316 211.94 186.977 211.353 187.68C210.766 188.342 210.211 188.92 210.113 188.92C210.015 188.92 208.678 190.119 207.112 191.607C205.579 193.096 204.111 194.295 203.85 194.295C203.23 194.295 203.328 193.054 204.013 192.765C204.307 192.6 206.003 191.111 207.732 189.458C209.461 187.804 210.994 186.44 211.124 186.44C211.255 186.44 211.516 186.192 211.712 185.861C212.136 185.241 218.464 179.206 218.953 178.958C219.149 178.875 222.542 175.774 226.456 172.054C230.371 168.375 236.307 162.835 239.635 159.776C242.962 156.717 246.159 153.699 246.746 153.079C247.366 152.417 248.018 151.839 248.214 151.756C248.442 151.673 249.91 150.309 251.509 148.738C254.118 146.258 255.293 145.431 255.293 146.175Z" fill="black"/>
<path d="M129.443 145.183C128.399 146.506 129.149 148.283 132.248 152.169C136.097 156.965 144.024 164.985 158.247 178.379C159.193 179.288 161.215 181.231 162.716 182.678C164.216 184.166 170.708 190.367 177.167 196.527C183.625 202.645 189.073 207.895 189.269 208.102C189.464 208.35 189.986 208.846 190.378 209.177C190.769 209.508 191.617 210.293 192.237 210.872L193.412 211.947L196.021 210.954C199.087 209.838 203.426 209.673 205.742 210.582C206.525 210.872 208.123 211.451 209.298 211.864C210.472 212.236 211.94 212.815 212.56 213.104C213.18 213.393 214.517 213.931 215.496 214.262C216.474 214.634 217.844 215.13 218.529 215.419C220.813 216.246 221.759 218.354 222.183 223.439C222.672 229.144 224.173 233.113 226.978 236.296C228.674 238.197 234.481 241.008 236.764 241.008C239.765 241.008 243.158 238.941 246.257 235.221L248.54 232.534L252.813 232.286C255.162 232.162 257.609 231.831 258.228 231.5C262.926 229.185 265.568 226.788 266.547 223.811C267.166 221.868 267.166 221.579 266.449 221.579C266.155 221.579 265.046 222.654 264.035 223.976C261.491 227.325 259.142 228.731 255.945 228.772C253.857 228.772 253.303 228.648 252.161 227.697C250.563 226.416 249.747 224.927 249.747 223.315C249.747 221.744 248.671 218.685 247.105 215.75C244.756 211.326 239.504 207.937 235.003 207.937C233.078 207.937 229.881 208.598 228.218 209.384C225.608 210.582 223.325 211.244 221.889 211.244C220.258 211.244 216.474 210.293 214.517 209.384C213.897 209.094 212.56 208.557 211.581 208.143C209.298 207.234 202.089 202.686 199.642 200.578C194.716 196.403 193.836 195.659 192.531 194.708C191.78 194.129 190.639 193.22 190.019 192.641C188.877 191.566 188.094 190.946 186.953 190.16C186.594 189.912 185.876 189.375 185.322 188.92C184.8 188.466 184.082 187.969 183.788 187.845C183.462 187.68 183.201 187.432 183.201 187.267C183.201 187.101 182.451 186.44 181.538 185.82C180.624 185.241 178.732 183.711 177.297 182.471C175.894 181.231 174.655 180.239 174.557 180.239C174.426 180.239 173.154 179.247 171.686 178.048C170.218 176.849 168.294 175.278 167.38 174.575C166.5 173.831 164.281 172.095 162.487 170.648C160.693 169.201 159.095 167.961 158.899 167.837C158.736 167.713 157.692 166.886 156.616 165.977C153.875 163.703 153.778 163.62 152.179 162.504C151.396 161.967 150.222 160.975 149.57 160.354C148.917 159.693 148.265 159.156 148.134 159.156C148.036 159.156 146.373 157.874 144.448 156.344C142.524 154.774 140.24 152.955 139.359 152.293C138.479 151.632 137.435 150.805 137.011 150.474C136.26 149.854 132.346 146.712 130.715 145.431C130.03 144.852 129.736 144.811 129.443 145.183ZM186.463 193.881C186.855 194.212 186.887 194.418 186.529 195.121C186.202 195.783 186.202 195.948 186.594 195.948C186.855 195.948 187.116 195.741 187.181 195.452C187.409 194.584 188.094 195.576 188.094 196.775C188.094 198.098 187.083 199.545 185.876 199.958C184.8 200.289 183.234 198.263 183.201 196.527C183.201 194.46 185.159 192.848 186.463 193.881ZM239.798 211.905C244.495 214.675 247.79 220.628 247.398 225.713C246.844 233.03 240.255 239.272 234.709 237.743C232.067 236.999 229.62 235.262 228.022 233.03C225.869 229.971 225.217 227.862 225.217 223.604C225.217 219.801 225.543 218.561 227.304 215.709C228.218 214.22 231.284 211.575 232.621 211.12C234.024 210.624 238.493 211.12 239.798 211.905Z" fill="black"/>
<path d="M204.926 164.447C204.829 164.695 204.894 165.026 205.09 165.15C205.579 165.563 205.905 165.026 205.481 164.489C205.253 164.199 205.057 164.199 204.926 164.447Z" fill="black"/>
<path d="M183.201 204.712C183.201 204.96 183.625 206.035 184.147 207.068C186.496 211.781 188.975 217.982 191.128 224.514C193.966 233.113 194.814 243.075 193.15 248.739C190.867 256.47 190.899 256.304 190.899 261.058C190.899 265.564 190.899 265.606 192.27 269.161C193.281 271.765 194.162 273.336 195.597 275.072C198.206 278.214 199.935 279.124 203.426 279.206C206.623 279.248 208.417 278.628 210.765 276.726C212.951 274.907 214.256 273.129 215.495 270.153C216.474 267.714 216.507 267.59 216.376 263.125C216.246 258.33 216.017 257.214 214.256 253.245C213.147 250.806 210.537 247.209 209.819 247.209C209.591 247.209 209.265 247.003 209.037 246.713C208.547 246.093 205.155 244.729 204.046 244.729C203.589 244.729 202.317 244.357 201.208 243.861C199.642 243.199 199.087 242.745 198.565 241.587C198.174 240.802 197.88 239.686 197.88 239.107C197.88 238.528 197.717 237.701 197.521 237.247C197.326 236.792 197.065 235.552 196.902 234.477C196.739 233.402 196.314 230.839 195.956 228.813C194.944 223.15 194.618 218.644 194.944 215.915C195.303 213.311 195.042 212.567 194.064 213.352C193.477 213.807 192.955 213.393 189.366 209.962C187.148 207.854 184.963 205.704 184.506 205.167C183.625 204.133 183.201 203.968 183.201 204.712ZM206.688 249.194C208.678 250.145 210.733 251.964 211.744 253.617C212.201 254.403 212.56 255.147 212.56 255.312C212.56 255.477 212.755 255.932 212.984 256.263C213.636 257.214 214.517 261.1 214.517 262.877C214.517 266.887 211.809 272.633 208.906 274.742C205.318 277.346 200.849 277.057 198.174 274.039C195.564 271.104 195.108 270.401 194.064 267.466C193.02 264.655 192.955 264.117 193.085 261.265C193.313 255.477 195.303 251.715 199.511 249.194C201.077 248.243 204.796 248.243 206.688 249.194Z" fill="black"/>
<path d="M180.102 212.939C178.112 215.006 175.861 217.403 175.046 218.272C172.11 221.413 166.271 227.614 164.77 229.227C163.89 230.136 163.042 231.087 162.846 231.294C162.65 231.542 161.313 232.906 159.91 234.394C158.507 235.882 157.105 237.371 156.811 237.701C156.517 238.032 155.539 239.066 154.658 239.975C153.745 240.884 152.962 241.753 152.864 241.877C152.603 242.207 138.902 257.214 137.565 258.578C134.042 262.174 131.661 265.151 131.954 265.523C132.313 265.978 133.161 265.358 135.771 262.753C136.684 261.802 137.761 260.769 138.152 260.438C138.544 260.107 140.99 257.834 143.567 255.353C146.177 252.914 148.362 250.93 148.46 250.93C148.558 250.93 149.08 250.434 149.635 249.814C150.156 249.194 151.363 248.036 152.309 247.209C153.255 246.424 154.886 244.936 155.963 243.902C160.53 239.644 168.457 232.244 169.664 231.128C170.381 230.508 173.643 227.449 176.873 224.431C180.135 221.372 183.56 218.23 184.441 217.445C186.17 215.957 186.659 214.386 185.745 213.393C185.517 213.145 185.028 212.112 184.669 211.078C184.31 210.045 183.951 209.177 183.853 209.177C183.756 209.177 182.059 210.872 180.102 212.939Z" fill="black"/>
</svg>
