<svg width="177" height="40" viewBox="0 0 177 40" fill="none" xmlns="http://www.w3.org/2000/svg">
<g clip-path="url(#clip0_615_3897)">
<mask id="mask0_615_3897" style="mask-type:luminance" maskUnits="userSpaceOnUse" x="2" y="4" width="33" height="33">
<path d="M2.6875 20.1265C2.6875 23.3021 3.62921 26.4063 5.39353 29.0466C7.15784 31.687 9.66552 33.7448 12.5994 34.9599C15.5333 36.1749 18.7617 36.4927 21.8762 35.8729C24.9906 35.2531 27.8514 33.7237 30.0966 31.4779C32.3418 29.2322 33.8706 26.3712 34.4897 23.2565C35.1088 20.1419 34.7904 16.9136 33.5746 13.98C32.3589 11.0464 30.3006 8.53915 27.6598 6.77541C25.0191 5.01167 21.9147 4.07065 18.7391 4.07135C14.4819 4.07322 10.3997 5.76546 7.38973 8.77608C4.37977 11.7867 2.68844 15.8693 2.6875 20.1265Z" fill="white"/>
</mask>
<g mask="url(#mask0_615_3897)">
<path d="M-13.3672 20.1265L18.7431 -11.9838L50.8534 20.1265L18.7431 52.2367L-13.3672 20.1265Z" fill="url(#paint0_linear_615_3897)"/>
</g>
<path d="M33.923 25.0958C33.8898 25.329 33.7896 25.5475 33.6346 25.7248C33.4796 25.9021 33.2764 26.0306 33.0497 26.0946C32.6007 26.1936 32.3249 25.6951 32.1004 25.3203C31.9689 25.0587 31.7819 24.8288 31.5524 24.6468C31.1016 24.3215 31.0026 24.0475 31.7009 23.9715C31.9767 23.922 32.1252 23.747 31.9519 23.572C31.5012 23.1477 31.6514 22.5732 31.4764 22.0994C31.3774 21.8501 31.5012 21.2261 30.8276 21.6751C30.6031 21.8254 30.5784 21.4259 30.5289 21.2508C30.4034 20.8761 30.0286 20.5756 29.7546 20.6003C29.4806 20.625 29.1553 20.9256 29.0298 21.3498C28.8552 21.916 28.5849 22.4482 28.2307 22.9232C27.8312 23.4217 27.6314 24.0475 28.1565 24.6203C28.381 24.896 28.7805 25.1206 28.4552 25.5042C28.031 26.0027 28.0062 25.2797 27.8312 25.2284C26.4824 24.9296 26.3834 23.6374 25.7841 22.7535C25.6586 22.5537 25.9609 21.9792 25.3351 22.255L25.2591 22.2302C24.5855 20.9309 23.4913 21.4807 22.4624 21.5549C21.4901 21.6044 20.5903 21.1801 19.6657 20.4058C19.717 21.1554 20.166 21.3304 20.4153 21.6557C20.8396 22.1542 21.0393 21.7299 21.4141 21.6557C21.7889 21.5814 22.2626 21.9297 22.6374 22.186C22.9379 22.3858 22.6622 22.6616 22.5384 22.8931C21.6899 24.3162 20.2155 24.8147 18.7677 25.315C18.2692 25.4918 18.3187 24.9897 18.1932 24.7157C17.6523 23.4961 17.0353 22.3117 16.3458 21.1695C16.2301 21.055 16.0948 20.9622 15.9463 20.8955C16.5456 22.6174 17.0706 24.2915 18.3682 25.589C18.8172 26.038 19.2415 25.6138 19.6657 25.665C19.9663 25.7145 20.3163 25.2655 20.5496 25.665C20.7494 25.9638 20.5001 26.2891 20.3499 26.5878C19.9963 27.295 19.6003 27.9119 18.8508 28.2867C18.5273 28.4635 18.2515 28.7605 17.9527 29.0097C17.304 29.5401 17.2032 30.1588 17.5285 30.9083C17.928 31.7816 17.753 32.1069 16.9044 32.4552C16.5509 32.5807 16.3299 32.6797 16.3741 33.2047C16.4749 34.154 14.677 35.1033 13.5279 34.8275C12.4796 34.5783 12.1137 33.5795 11.4296 32.9059C11.0566 32.5312 10.8321 32.0309 10.482 31.6066C10.3157 31.4368 10.2048 31.2204 10.1641 30.9862C10.1233 30.752 10.1547 30.5109 10.254 30.2949C10.5775 29.4711 10.003 28.7958 9.62995 28.1735C9.30468 27.675 9.03067 27.2755 9.30468 26.6515C9.45494 26.3262 9.37893 26.0009 8.90516 25.9444L8.66297 25.8754C8.21218 24.7511 7.01538 24.9261 6.16507 24.5018C5.39077 24.1271 5.39077 23.3528 5.11676 22.734C4.56698 21.486 4.9665 20.2591 5.36602 19.0641C5.51629 18.6398 5.7903 18.2155 6.18982 18.0405C6.76867 17.7822 7.29394 17.4176 7.73841 16.9657C8.51271 16.2179 9.32943 17.116 10.1355 16.9905C10.4096 16.941 10.7101 17.1407 10.9841 17.1902C11.4596 17.291 11.6081 17.5438 11.3589 17.9398C11.0601 18.4153 11.1096 18.6893 11.7124 18.7636C11.9617 18.7883 11.9864 19.1383 12.1367 19.2939C12.3135 19.4937 12.5362 19.7429 12.7855 19.4176C13.1107 18.9439 13.4095 19.1189 13.7348 19.3681C14.3588 19.8684 15.1331 19.9179 15.8827 19.9179C16.4307 19.9179 16.4554 19.3186 16.5562 18.9191C16.657 18.5196 16.3069 18.5938 16.0559 18.5656C15.3824 18.5161 14.7336 18.3888 14.7583 17.4925C14.7583 17.192 14.5091 17.192 14.3093 17.2927C14.1096 17.3935 13.885 17.443 14.1325 17.717C14.1749 17.7475 14.2081 17.7891 14.2284 17.8372C14.2487 17.8853 14.2554 17.9381 14.2478 17.9898C14.2401 18.0414 14.2184 18.09 14.1849 18.1301C14.1515 18.1702 14.1077 18.2004 14.0583 18.2173C13.733 18.3941 13.733 18.0405 13.6588 17.892C13.2592 17.1849 13.5333 16.2444 12.759 15.6699C12.5822 16.0235 12.759 16.3187 12.9357 16.6192C13.0612 16.8437 13.2893 17.0682 12.8615 17.2185C12.3612 17.3953 12.6105 16.9675 12.5362 16.819C12.2109 16.2197 12.2109 15.2704 11.1874 15.4454C10.7384 15.5196 10.3141 15.8202 9.96407 16.1437C9.51505 16.5432 9.06603 16.674 8.61524 16.3205C8.29173 16.0712 8.06722 15.6222 8.43846 15.2474C8.8097 14.8726 8.91223 14.0241 9.76077 14.6729C10.2611 15.0476 10.5846 14.5226 10.5103 14.2238C10.2858 13.3735 10.7596 13.5167 11.2333 13.5733C11.4092 13.5444 11.5786 13.4845 11.7336 13.3965C11.0849 13.1702 10.7101 12.921 11.5339 12.3977C11.8326 12.198 11.5834 11.5474 12.1579 11.4484C12.3347 11.7224 12.0324 11.8232 11.9811 11.9787C11.7566 12.8291 12.0306 13.1278 12.865 12.9528C13.0418 12.9281 13.1885 12.7035 13.3388 12.8538C14.0371 13.4778 14.6116 13.2781 15.3364 12.8043C15.6104 12.6275 15.5857 12.5285 15.5857 12.3288C15.6104 12.03 15.4354 11.7047 15.6599 11.406C15.0624 11.6057 15.0624 12.2545 14.5621 12.5285C14.1626 12.753 14.0883 12.9776 13.7878 12.3518C13.3388 11.3282 13.238 11.3777 14.3182 10.9039C14.4732 10.8217 14.6231 10.7302 14.7672 10.6299C15.8915 9.83087 17.014 9.43135 18.1879 10.5804C18.4619 10.8544 20.4595 10.2056 20.684 9.8733C21.11 9.29877 21.5838 8.74898 21.7836 8.02595L22.0081 7.80144C22.7152 8.0507 23.2561 7.62466 23.9314 7.42667C23.7201 7.09112 23.576 6.71766 23.5072 6.3271C23.3569 5.4538 22.3829 5.27879 21.6581 5.07903C20.8343 4.82977 19.961 4.80502 19.1124 4.72547C18.6369 4.67597 18.1136 4.57697 17.7636 5.12499C17.5143 5.52451 17.1148 5.15151 16.7895 5.12499C16.565 5.12499 16.2398 5.02599 16.1655 5.30177C16.0913 5.67654 16.4395 5.5528 16.6393 5.6023C17.0388 5.70129 17.3464 5.90106 16.9398 6.32533C16.763 6.50211 16.8143 6.57635 16.8903 6.75137C17.0671 7.12437 16.7895 7.34888 16.4908 7.3754C15.9905 7.40015 15.6069 7.69891 15.1667 7.87392C14.2174 8.24869 13.2946 8.74721 12.2445 8.27344C11.6205 7.99943 11.1467 8.67296 10.2999 8.4732C11.9723 6.88218 14.0441 6.77611 15.8933 6.12556C15.568 5.77201 15.1437 5.80206 14.6699 5.97707C13.6959 6.33063 12.7961 6.85036 11.6647 6.82561C10.9576 6.80086 10.3406 7.47439 9.84209 7.97468C9.34357 8.47497 8.46851 8.4732 8.19273 9.27224C8.17143 9.31112 8.14108 9.34428 8.10424 9.36893C8.0674 9.39358 8.02516 9.40898 7.9811 9.41384C7.93705 9.41869 7.89247 9.41286 7.85114 9.39683C7.80982 9.3808 7.77297 9.35504 7.74371 9.32174C7.6182 9.14496 7.41844 8.92222 7.69421 8.69771C8.99178 7.62466 10.1408 6.32532 11.9634 6.20158C12.363 6.17683 12.7377 5.9258 13.162 6.07607C13.2115 5.89929 13.9611 6.12557 13.436 5.54573C13.2363 5.31945 13.6358 5.17095 13.8621 5.11969C18.1808 3.94764 22.3475 4.09613 26.2702 6.49326C26.6945 6.74429 27.1206 7.02361 27.5201 7.29231L27.5696 7.54157C27.17 7.71835 26.9455 7.24281 26.5955 7.26756C26.7007 7.66185 26.9288 8.01238 27.2466 8.26827C27.5645 8.52416 27.9557 8.67211 28.3633 8.69064C29.0121 8.74014 29.3109 9.26518 29.6114 9.68945C29.7163 9.89821 29.8603 10.0849 30.0356 10.2392H30.0109L30.2107 10.439V10.4142C30.7852 10.8633 30.6844 11.6623 31.0592 12.2121C31.434 12.7619 31.609 12.6116 31.784 12.1113V12.0371C32.4823 12.4119 32.1075 13.3347 32.8818 13.8349C32.233 13.8597 31.959 13.5857 31.6337 13.3594C31.4092 13.2109 31.16 12.7106 30.8842 13.1596C30.6084 13.6087 31.259 13.4602 31.2837 13.5592C31.4605 14.3582 32.2825 14.7082 32.5583 15.433C32.682 15.7866 32.7581 16.1561 33.1063 16.4071C33.1479 16.4376 33.183 16.4761 33.2095 16.5204C33.2359 16.5647 33.2532 16.6139 33.2603 16.665C33.2674 16.7161 33.2641 16.7681 33.2507 16.818C33.2373 16.8678 33.2141 16.9144 33.1823 16.9551C32.7828 17.6056 32.5318 18.2544 32.682 19.0287L32.6573 19.278C32.408 19.7023 32.408 19.7023 32.7828 20.1513C33.1063 20.5755 33.0816 21.7741 32.7315 22.1736C32.6974 22.2182 32.6507 22.2516 32.5975 22.2695C32.5443 22.2875 32.487 22.2892 32.4328 22.2744C32.233 22.2249 32.058 21.7246 31.8335 22.1984C31.708 22.4742 31.7345 22.8489 32.0103 22.9974C32.6096 23.3227 32.6343 23.8725 32.6591 24.4117C32.6591 24.7864 33.3078 24.942 32.9596 25.361C33.4581 25.3857 33.5836 24.6874 33.9319 25.087L33.923 25.0958ZM17.2704 17.2309C17.4472 17.1054 17.8431 17.3299 17.8007 16.9551C17.7704 16.7606 17.6791 16.5808 17.5399 16.4416C17.4007 16.3024 17.2209 16.2111 17.0264 16.1808C16.7029 16.1313 16.3529 16.3311 16.1531 15.882C16.0789 15.7053 15.8279 15.8573 15.7041 15.9563C15.5662 16.0611 15.4557 16.1976 15.3818 16.3543C15.3079 16.5109 15.273 16.6831 15.2798 16.8561C15.2773 16.8932 15.284 16.9303 15.2995 16.964C15.3149 16.9978 15.3385 17.0272 15.3682 17.0495C15.3979 17.0718 15.4327 17.0863 15.4695 17.0918C15.5062 17.0972 15.5437 17.0934 15.5786 17.0806C16.1779 16.8808 16.7277 17.1054 17.2775 17.2309M16.3529 10.888L16.2026 10.8633L16.0029 11.0135C15.9781 11.1638 16.1036 11.1125 16.1531 11.063L16.3529 10.888Z" fill="#FE0000"/>
<path d="M18.8665 33.7845C18.5412 33.735 18.2672 33.4857 18.3662 33.2542C18.5907 32.7061 18.0922 31.8576 19.0398 31.6313L19.1653 31.5323C19.4393 31.2831 19.7893 30.7828 20.1146 30.9825C20.5636 31.2831 20.1888 31.7816 20.0138 32.1811C19.8388 32.5806 19.6603 32.9307 19.5153 33.3054C19.3898 33.6289 19.1158 33.6802 18.8665 33.7792" fill="#FE0000"/>
<path d="M34.6496 22.4246C34.5241 22.8984 34.4003 23.4234 34.2501 23.9219C34.1511 24.1959 33.9248 24.4965 33.6013 24.3957C33.3255 24.3215 33.2477 23.9714 33.3008 23.7222C33.5005 22.9231 33.8505 22.1736 33.9513 21.3498C33.9573 21.3207 33.9695 21.2932 33.9872 21.2693C34.0049 21.2454 34.0275 21.2256 34.0536 21.2113C34.0796 21.197 34.1085 21.1885 34.1382 21.1865C34.1678 21.1845 34.1976 21.1889 34.2253 21.1995L34.4498 21.4506C34.5241 21.7246 34.5753 22.0498 34.6496 22.4246Z" fill="#FE0000"/>
<path d="M34.6219 20.4766C34.2472 19.6033 33.9148 18.8855 33.6231 18.1537C33.5879 18.0904 33.5738 18.0176 33.5827 17.9458C33.5916 17.874 33.6231 17.8069 33.6726 17.7542L33.9731 17.8302C34.1729 18.654 35.0462 19.3027 34.6219 20.4819" fill="#FE0000"/>
<path d="M18.0184 7.91637C17.6189 8.26993 17.3696 8.5404 16.9701 8.34064C16.8446 8.29114 16.8711 8.11613 16.9453 8.01714C17.1946 7.64236 17.5446 7.79263 18.0184 7.91637Z" fill="#FE0000"/>
<path d="M13.0226 9.16616C13.0189 9.28182 12.9696 9.39133 12.8855 9.47081C12.8014 9.55029 12.6893 9.59329 12.5736 9.59043C12.3491 9.61518 12.1493 9.51441 12.1493 9.26515C12.143 9.17632 12.1705 9.08837 12.2262 9.01889C12.2819 8.94941 12.3618 8.90352 12.4499 8.89038C12.7486 8.81613 12.8494 9.09014 13.0226 9.16616Z" fill="#FE0000"/>
<path d="M30.7018 10.2887C30.578 10.2887 30.4772 10.264 30.3482 10.264V10.2887C30.352 10.2616 30.3495 10.2339 30.3408 10.208C30.3321 10.182 30.3175 10.1584 30.2982 10.139C30.2788 10.1196 30.2552 10.105 30.2292 10.0963C30.2032 10.0877 30.1756 10.0851 30.1484 10.089H30.1732C30.2474 9.91219 30.1237 9.55862 30.3977 9.61519C30.6717 9.67176 30.647 10.0395 30.6965 10.2887H30.7018Z" fill="#4E5962"/>
<path d="M31.9239 11.9098V11.9858C31.6251 11.8851 31.6004 11.6111 31.5703 11.36C31.9451 11.3866 31.9946 11.6111 31.9239 11.9098Z" fill="#4E5962"/>
<path d="M31.5766 11.3618C31.4263 11.337 31.3008 11.2628 31.3008 11.1125L31.4263 11.0383C31.6031 11.063 31.6031 11.215 31.5766 11.3618Z" fill="#4E5962"/>
<path d="M33.9497 25.0958L33.8984 24.8961H33.9745L33.9232 25.0958H33.9497Z" fill="#C5212A"/>
<path d="M31.0508 10.6387L31.177 10.7383C31.0259 10.8396 31.0757 10.7134 31.0508 10.6387Z" fill="#4E5962"/>
<path d="M31.0518 10.6388C30.928 10.6388 30.875 10.5893 30.875 10.462C31.0005 10.462 31.0518 10.5115 31.0518 10.6388Z" fill="#4E5962"/>
<path d="M30.7014 10.2887C30.7253 10.2855 30.7497 10.2879 30.7726 10.2957C30.7955 10.3034 30.8163 10.3163 30.8334 10.3334C30.8505 10.3505 30.8635 10.3713 30.8712 10.3943C30.879 10.4172 30.8813 10.4415 30.8781 10.4655C30.7544 10.4655 30.6784 10.416 30.7014 10.2887Z" fill="#4E5962"/>
</g>
<path d="M49.0744 14.4409V27.177H46.6725V14.4409H42.7468V12.4023H52.98V14.4409H49.0744ZM54.8168 27.177V12.4023H63.0619V14.4409H57.2187V18.1447H63.0619V20.2539H57.2187V25.0274H63.0619V27.177H54.8168ZM65.8171 27.177V12.4023H74.0622V14.4409H68.2189V18.1245H74.0622V20.2337H68.2189V27.177H65.8171ZM88.7461 15.9345C88.0396 15.1675 87.2861 14.6024 86.4855 14.2391C85.6848 13.869 84.8001 13.684 83.8313 13.684C83.0508 13.684 82.2872 13.8421 81.5404 14.1583C80.8003 14.4745 80.1578 14.9152 79.6128 15.4804C79.0477 16.0657 78.6238 16.7217 78.3412 17.4483C78.0586 18.1682 77.9174 18.9655 77.9174 19.8401C77.9174 20.5264 78.0015 21.1588 78.1697 21.7374C78.3379 22.316 78.5902 22.8475 78.9266 23.332C79.5186 24.173 80.2452 24.8222 81.1064 25.2797C81.9743 25.7305 82.9095 25.9559 83.912 25.9559C84.8539 25.9559 85.7286 25.7608 86.5359 25.3705C87.3433 24.9803 88.08 24.3983 88.7461 23.6246V25.9559C88.0127 26.4874 87.2222 26.8911 86.3744 27.1669C85.5334 27.436 84.6622 27.5706 83.7606 27.5706C82.9802 27.5706 82.2199 27.4528 81.4798 27.2174C80.7397 26.9886 80.0468 26.6522 79.4009 26.2082C78.3244 25.4614 77.5002 24.543 76.9283 23.4531C76.3632 22.3631 76.0806 21.1655 76.0806 19.8603C76.0806 18.7233 76.269 17.6905 76.6458 16.7621C77.0293 15.8269 77.6112 14.9791 78.3917 14.2189C79.1452 13.4923 79.9795 12.9507 80.8945 12.5941C81.8095 12.2308 82.8086 12.0491 83.8918 12.0491C84.7463 12.0491 85.5738 12.1803 86.3744 12.4427C87.1751 12.6984 87.9656 13.0987 88.7461 13.6436V15.9345ZM98.9692 25.9155C99.7766 25.9155 100.544 25.7641 101.27 25.4614C102.004 25.1519 102.663 24.7045 103.248 24.1191C103.827 23.5405 104.268 22.8845 104.57 22.1512C104.873 21.4178 105.024 20.6408 105.024 19.8199C105.024 18.9924 104.87 18.2052 104.56 17.4584C104.257 16.7116 103.82 16.0523 103.248 15.4804C102.67 14.9018 102.014 14.4611 101.28 14.1583C100.554 13.8556 99.7833 13.7042 98.9692 13.7042C98.1484 13.7042 97.3714 13.8556 96.638 14.1583C95.9046 14.4611 95.2554 14.9018 94.6902 15.4804C94.1116 16.0657 93.671 16.7284 93.3682 17.4685C93.0654 18.2086 92.9141 18.9924 92.9141 19.8199C92.9141 20.6408 93.0621 21.4145 93.3581 22.1411C93.6609 22.8677 94.1049 23.5271 94.6902 24.1191C95.2823 24.7112 95.9383 25.1586 96.6582 25.4614C97.3848 25.7641 98.1552 25.9155 98.9692 25.9155ZM106.861 19.8199C106.861 20.8762 106.666 21.872 106.276 22.8072C105.886 23.7424 105.317 24.5733 104.57 25.2999C103.823 26.0265 102.962 26.5883 101.987 26.9853C101.018 27.3755 100.012 27.5706 98.9692 27.5706C97.9264 27.5706 96.9206 27.3755 95.9517 26.9853C94.9896 26.5883 94.1352 26.0265 93.3884 25.2999C92.6348 24.5665 92.0596 23.7323 91.6626 22.7971C91.2724 21.8619 91.0773 20.8695 91.0773 19.8199C91.0773 18.7636 91.2724 17.7679 91.6626 16.8327C92.0596 15.8908 92.6348 15.0532 93.3884 14.3198C94.1285 13.5999 94.9829 13.0448 95.9517 12.6546C96.9206 12.2644 97.9264 12.0693 98.9692 12.0693C100.019 12.0693 101.028 12.2644 101.997 12.6546C102.972 13.0448 103.83 13.5999 104.57 14.3198C105.317 15.0464 105.886 15.8807 106.276 16.8226C106.666 17.7578 106.861 18.7569 106.861 19.8199ZM109.737 27.177V11.817L120.546 23.6246V12.4023H122.221V27.7522L111.413 16.0758V27.177H109.737ZM125.763 27.177V11.817L136.572 23.6246V12.4023H138.247V27.7522L127.439 16.0758V27.177H125.763ZM141.79 27.177V12.4023H149.581V14.007H143.546V18.2456H149.581V19.8805H143.546V25.5421H149.581V27.177H141.79ZM164.557 15.9345C163.851 15.1675 163.097 14.6024 162.297 14.2391C161.496 13.869 160.611 13.684 159.642 13.684C158.862 13.684 158.098 13.8421 157.351 14.1583C156.611 14.4745 155.969 14.9152 155.424 15.4804C154.859 16.0657 154.435 16.7217 154.152 17.4483C153.87 18.1682 153.728 18.9655 153.728 19.8401C153.728 20.5264 153.813 21.1588 153.981 21.7374C154.149 22.316 154.401 22.8475 154.738 23.332C155.33 24.173 156.056 24.8222 156.917 25.2797C157.785 25.7305 158.721 25.9559 159.723 25.9559C160.665 25.9559 161.54 25.7608 162.347 25.3705C163.154 24.9803 163.891 24.3983 164.557 23.6246V25.9559C163.824 26.4874 163.033 26.8911 162.185 27.1669C161.344 27.436 160.473 27.5706 159.572 27.5706C158.791 27.5706 158.031 27.4528 157.291 27.2174C156.551 26.9886 155.858 26.6522 155.212 26.2082C154.135 25.4614 153.311 24.543 152.739 23.4531C152.174 22.3631 151.892 21.1655 151.892 19.8603C151.892 18.7233 152.08 17.6905 152.457 16.7621C152.84 15.8269 153.422 14.9791 154.203 14.2189C154.956 13.4923 155.791 12.9507 156.706 12.5941C157.621 12.2308 158.62 12.0491 159.703 12.0491C160.557 12.0491 161.385 12.1803 162.185 12.4427C162.986 12.6984 163.777 13.0987 164.557 13.6436V15.9345ZM170.148 27.177V14.0776H165.97V12.4023H176.082V14.0776H171.924V27.177H170.148Z" fill="white"/>
<defs>
<linearGradient id="paint0_linear_615_3897" x1="6.13437" y1="35.8107" x2="28.8532" y2="13.0918" gradientUnits="userSpaceOnUse">
<stop stop-color="#C9CACB"/>
<stop offset="1" stop-color="#E8E8E9"/>
</linearGradient>
<clipPath id="clip0_615_3897">
<rect width="39.2641" height="39.2641" fill="white"/>
</clipPath>
</defs>
</svg>
